{"title":"Colombiana.2011.HDRip.x264.Feel-Free","uid":6734681,"size":1408612921,"categoryP":"video","categoryS":"movies","magnet":"?xt=urn:btih:599793955331f670aff12a6a610700cc671d0b24&amp;dn=Colombiana.2011.HDRip.x264.Feel-Free&amp;tr=udp%3A%2F%2Ftracker.openbittorrent.com%3A80&amp;tr=udp%3A%2F%2Fopen.demonii.com%3A1337&amp;tr=udp%3A%2F%2Ftracker.coppersurfer.tk%3A6969&amp;tr=udp%3A%2F%2Fexodus.desync.com%3A6969","seeders":1,"leechers":0,"uploader":".BONE.","files":9,"time":1318284512,"description":"\nGenre:Action | Crime | Drama\nLanguage:English\nIMDb:http://www.imdb.com/title/tt1657507/\nSource:ZERO Thanks!\n\nFormat : MPEG-4\nFormat profile : Base Media\nCodec ID : isom\nFile size : 1.31 GiB\nDuration : 1h 47mn\nOverall bit rate : 1 740 Kbps\n\nVideo\nID : 1\nFormat : AVC\nFormat/Info : Advanced Video Codec\nFormat profile : &lt;a class=&quot;__cf_email__&quot; href=&quot;/cdn-cgi/l/email-protection&quot; data-cfemail=&quot;377f5e505f777b031906&quot;&gt;[email&amp;#160;protected]&lt;/a&gt;&lt;script cf-hash='f9e31' type=&quot;text/javascript&quot;&gt;\n/* &lt;![CDATA[ */!function(){try{var t=&quot;currentScript&quot;in document?document.currentScript:function(){for(var t=document.getElementsByTagName(&quot;script&quot;),e=t.length;e--;)if(t[e].getAttribute(&quot;cf-hash&quot;))return t[e]}();if(t&amp;&amp;t.previousSibling){var e,r,n,i,c=t.previousSibling,a=c.getAttribute(&quot;data-cfemail&quot;);if(a){for(e=&quot;&quot;,r=parseInt(a.substr(0,2),16),n=2;a.length-n;n+=2)i=parseInt(a.substr(n,2),16)^r,e+=String.fromCharCode(i);e=document.createTextNode(e),c.parentNode.replaceChild(e,c)}}}catch(u){}}();/* ]]&gt; */&lt;/script&gt;\nFormat settings, CABAC : Yes\nFormat settings, ReFrames : 3 frames\nCodec ID : avc1\nCodec ID/Info : Advanced Video Coding\nDuration : 1h 47mn\nBit rate mode : Variable\nBit rate : 1 500 Kbps\nMaximum bit rate : 6 904 Kbps\nWidth : 720 pixels\nHeight : 304 pixels\nDisplay aspect ratio : 2.35:1\nFrame rate mode : Constant\nFrame rate : 29.970 fps\nColor space : YUV\nChroma subsampling : 4:2:0\nBit depth : 8 bits\nScan type : Progressive\nBits/(Pixel*Frame) : 0.229\nStream size : 1.14 GiB (87%)\nWriting library : x264\n\nAudio\nID : 2\nFormat : AAC\nFormat/Info : Advanced Audio Codec\nFormat version : Version 4\nFormat profile : LC\nFormat settings, SBR : No\nCodec ID : 40\nDuration : 1h 47mn\nBit rate mode : Variable\nBit rate : 224 Kbps\nMaximum bit rate : 289 Kbps\nChannel(s) : 2 channels\nChannel positions : Front: L R\nSampling rate : 48.0 KHz\nStream size : 173 MiB (13%)\n\n\nPlot:\nA young woman, after witnessing her parents' murder as a child in Bogota, grows up to be a stone-cold assassin\n &lt;a href=&quot;\nhttp://shareimage.org/images/24coj0fdfbpmkvcz58o9.png&quot; rel=&quot;nofollow&quot; target=&quot;_NEW&quot;&gt;\nhttp://shareimage.org/images/24coj0fdfbpmkvcz58o9.png&lt;/a&gt;\n &lt;a href=&quot;\nhttp://shareimage.org/images/mlk4j0f32uths32vgvch.png&quot; rel=&quot;nofollow&quot; target=&quot;_NEW&quot;&gt;\nhttp://shareimage.org/images/mlk4j0f32uths32vgvch.png&lt;/a&gt;\n &lt;a href=&quot;\nhttp://shareimage.org/images/0g5v7zg2n00to2zu9ij.png&quot; rel=&quot;nofollow&quot; target=&quot;_NEW&quot;&gt;\nhttp://shareimage.org/images/0g5v7zg2n00to2zu9ij.png&lt;/a&gt;\n &lt;a href=&quot;\nhttp://shareimage.org/images/nlb7eburxj2r5bf06lb.png&quot; rel=&quot;nofollow&quot; target=&quot;_NEW&quot;&gt;\nhttp://shareimage.org/images/nlb7eburxj2r5bf06lb.png&lt;/a&gt;\n &lt;a href=&quot;\nhttp://shareimage.org/images/neflqg0q2sltd0wkgit3.png&quot; rel=&quot;nofollow&quot; target=&quot;_NEW&quot;&gt;\nhttp://shareimage.org/images/neflqg0q2sltd0wkgit3.png&lt;/a&gt;","torrent":{"xt":"urn:btih:599793955331f670aff12a6a610700cc671d0b24","amp;dn":"Colombiana.2011.HDRip.x264.Feel-Free","amp;tr":["udp%3A%2F%2Ftracker.openbittorrent.com%3A80","udp%3A%2F%2Fopen.demonii.com%3A1337","udp%3A%2F%2Ftracker.coppersurfer.tk%3A6969","udp%3A%2F%2Fexodus.desync.com%3A6969"],"infoHash":"599793955331f670aff12a6a610700cc671d0b24","infoHashBuffer":{"type":"Buffer","data":[89,151,147,149,83,49,246,112,175,241,42,106,97,7,0,204,103,29,11,36]},"announce":[],"urlList":[]}}